HIERARCHY
ROOT hip
{
  OFFSET 0 0 0
  CHANNELS 6 Xposition Yposition Zposition Zrotation Yrotation Xrotation
  JOINT abdomen
  {
    OFFSET 0 20.6881 -0.73152
    CHANNELS 3 Zrotation Xrotation Yrotation
    JOINT chest
    {
      OFFSET 0 11.7043 -0.48768
      CHANNELS 3 Zrotation Xrotation Yrotation
      JOINT neck
      {
        OFFSET 0 22.1894 -2.19456
        CHANNELS 3 Zrotation Xrotation Yrotation
        JOINT head
        {
          OFFSET -0.24384 7.07133 1.2192
          CHANNELS 3 Zrotation Xrotation Yrotation
          JOINT leftEye
          {
            OFFSET 4.14528 8.04674 8.04672
            CHANNELS 3 Zrotation Xrotation Yrotation
            End Site
            {
              OFFSET 1 0 0
            }
          }
          JOINT rightEye
          {
            OFFSET -3.6576 8.04674 8.04672
            CHANNELS 3 Zrotation Xrotation Yrotation
            End Site
            {
              OFFSET 1 0 0
            }
          }
        }
      }
      JOINT rCollar
      {
        OFFSET -2.68224 19.2634 -4.8768
        CHANNELS 3 Zrotation Xrotation Yrotation
        JOINT rShldr
        {
          OFFSET -8.77824 -1.95073 1.46304
          CHANNELS 3 Zrotation Xrotation Yrotation
          JOINT rForeArm
          {
            OFFSET -28.1742 -1.7115 0.48768
            CHANNELS 3 Zrotation Xrotation Yrotation
            JOINT rHand
            {
              OFFSET -22.5879 0.773209 7.07136
              CHANNELS 3 Zrotation Xrotation Yrotation
              JOINT rThumb1
              {
                OFFSET -1.2192 -0.487915 3.41376
                CHANNELS 3 Zrotation Xrotation Yrotation
                JOINT rThumb2
                {
                  OFFSET -3.37035 -0.52449 3.41376
                  CHANNELS 3 Zrotation Xrotation Yrotation
                  End Site
                  {
                    OFFSET -1.78271 -1.18214 1.43049
                  }
                }
              }
              JOINT rIndex1
              {
                OFFSET -7.75947 0.938293 5.60832
                CHANNELS 3 Zrotation Xrotation Yrotation
                JOINT rIndex2
                {
                  OFFSET -2.54057 -0.884171 1.56538
                  CHANNELS 3 Zrotation Xrotation Yrotation
                  End Site
                  {
                    OFFSET -1.62519 -0.234802 1.16502
                  }
                }
              }
              JOINT rMid1
              {
                OFFSET -8.24714 1.18213 3.41376
                CHANNELS 3 Zrotation Xrotation Yrotation
                JOINT rMid2
                {
                  OFFSET -3.10165 -0.590103 1.0647
                  CHANNELS 3 Zrotation Xrotation Yrotation
                  End Site
                  {
                    OFFSET -2.48547 -0.328903 0.83742
                  }
                }
              }
              JOINT rRing1
              {
                OFFSET -8.82822 0.546677 1.51678
                CHANNELS 3 Zrotation Xrotation Yrotation
                JOINT rRing2
                {
                  OFFSET -2.60934 -0.819778 -0.0198488
                  CHANNELS 3 Zrotation Xrotation Yrotation
                  End Site
                  {
                    OFFSET -2.33842 -0.294052 0.168128
                  }
                }
              }
              JOINT rPinky1
              {
                OFFSET -8.27202 -0.0477905 -0.4584
                CHANNELS 3 Zrotation Xrotation Yrotation
                JOINT rPinky2
                {
                  OFFSET -1.82734 -0.647385 -0.700984
                  CHANNELS 3 Zrotation Xrotation Yrotation
                  End Site
                  {
                    OFFSET -1.69225 -0.51767 -0.607171
                  }
                }
              }
            }
          }
        }
      }
      JOINT lCollar
      {
        OFFSET 2.68224 19.2634 -4.8768
        CHANNELS 3 Zrotation Xrotation Yrotation
        JOINT lShldr
        {
          OFFSET 8.77824 -1.95073 1.46304
          CHANNELS 3 Zrotation Xrotation Yrotation
          JOINT lForeArm
          {
            OFFSET 28.1742 -1.7115 0.48768
            CHANNELS 3 Zrotation Xrotation Yrotation
            JOINT lHand
            {
              OFFSET 22.5879 0.773209 7.07136
              CHANNELS 3 Zrotation Xrotation Yrotation
              JOINT lThumb1
              {
                OFFSET 1.2192 -0.487915 3.41376
                CHANNELS 3 Zrotation Xrotation Yrotation
                JOINT lThumb2
                {
                  OFFSET 3.37035 -0.52449 3.41376
                  CHANNELS 3 Zrotation Xrotation Yrotation
                  End Site
                  {
                    OFFSET 1.78271 -1.18214 1.43049
                  }
                }
              }
              JOINT lIndex1
              {
                OFFSET 7.75947 0.938293 5.60832
                CHANNELS 3 Zrotation Xrotation Yrotation
                JOINT lIndex2
                {
                  OFFSET 2.54057 -0.884171 1.56538
                  CHANNELS 3 Zrotation Xrotation Yrotation
                  End Site
                  {
                    OFFSET 1.62519 -0.234802 1.16502
                  }
                }
              }
              JOINT lMid1
              {
                OFFSET 8.24714 1.18213 3.41376
                CHANNELS 3 Zrotation Xrotation Yrotation
                JOINT lMid2
                {
                  OFFSET 3.10165 -0.590103 1.0647
                  CHANNELS 3 Zrotation Xrotation Yrotation
                  End Site
                  {
                    OFFSET 2.48547 -0.328903 0.83742
                  }
                }
              }
              JOINT lRing1
              {
                OFFSET 8.82822 0.546677 1.51678
                CHANNELS 3 Zrotation Xrotation Yrotation
                JOINT lRing2
                {
                  OFFSET 2.60934 -0.819778 -0.0198488
                  CHANNELS 3 Zrotation Xrotation Yrotation
                  End Site
                  {
                    OFFSET 2.33842 -0.294052 0.168128
                  }
                }
              }
              JOINT lPinky1
              {
                OFFSET 8.27202 -0.0477905 -0.4584
                CHANNELS 3 Zrotation Xrotation Yrotation
                JOINT lPinky2
                {
                  OFFSET 1.82734 -0.647385 -0.700984
                  CHANNELS 3 Zrotation Xrotation Yrotation
                  End Site
                  {
                    OFFSET 1.69225 -0.51767 -0.607171
                  }
                }
              }
            }
          }
        }
      }
    }
  }
  JOINT rButtock
  {
    OFFSET -8.77824 4.35084 1.2192
    CHANNELS 3 Zrotation Xrotation Yrotation
    JOINT rThigh
    {
      OFFSET 0 -1.70687 -2.19456
      CHANNELS 3 Zrotation Xrotation Yrotation
      JOINT rShin
      {
        OFFSET 0 -36.8199 0.73152
        CHANNELS 3 Zrotation Xrotation Yrotation
        JOINT rFoot
        {
          OFFSET 0.73152 -45.1104 -5.12064
          CHANNELS 3 Zrotation Xrotation Yrotation
          End Site
          {
            OFFSET -1.1221 -3.69964 12.103
          }
        }
      }
    }
  }
  JOINT lButtock
  {
    OFFSET 8.77824 4.35084 1.2192
    CHANNELS 3 Zrotation Xrotation Yrotation
    JOINT lThigh
    {
      OFFSET 0 -1.70687 -2.19456
      CHANNELS 3 Zrotation Xrotation Yrotation
      JOINT lShin
      {
        OFFSET 0 -36.8199 0.73152
        CHANNELS 3 Zrotation Xrotation Yrotation
        JOINT lFoot
        {
          OFFSET -0.73152 -45.1104 -5.12064
          CHANNELS 3 Zrotation Xrotation Yrotation
          End Site
          {
            OFFSET 1.1221 -3.69964 12.103
          }
        }
      }
    }
  }
}
MOTION
Frames:	7
Frame Time:	0.00833333
-90.1793 84.7178 -169.425 0.0 0.0 0.0 -0.462536 -0.0020737 -0.0132011 -0.127534 -0.0031584 -0.0220956 -9.719e-15 -2.38542e-15 1.8636e-17 -2.91468e-14 -6.36111e-15 6.67792e-17 -0.0 0.0 0.0 -0.0 0.0 0.0 -4.87178e-15 -1.28123e-17 1.49089e-16 -9.90398e-14 -7.70291e-16 5.96354e-16 -1.75726e-12 5.13461e-13 9.54166e-15 -2.00976e-11 -5.8306e-13 1.59028e-14 -4.74108e-11 -1.46828e-13 7.31528e-14 -8.18826e-11 -2.54444e-13 1.24042e-13 -4.74034e-11 -1.4392e-13 6.99722e-14 7.73091 5.47488 0.417314 -4.74101e-11 -1.46206e-13 7.63333e-14 2.90554 0.965183 0.102902 -4.73986e-11 -1.45908e-13 7.79236e-14 10.2786 0.731801 0.0259123 -4.74115e-11 -1.47498e-13 8.90555e-14 2.22167 -0.733487 -0.20892 -4.7696e-15 -1.18417e-17 -1.49089e-16 -1.04566e-13 -1.98785e-16 -1.19271e-15 -1.75557e-12 -5.35128e-13 3.18055e-14 -2.01063e-11 4.75543e-13 1.59028e-14 -4.74229e-11 -1.32822e-13 7.31528e-14 -8.18981e-11 -2.3218e-13 1.4233e-13 -4.74316e-11 -1.30403e-13 8.5875e-14 -7.73091 5.47488 -0.417314 -4.7424e-11 -1.31993e-13 7.95139e-14 -2.90554 0.965183 -0.102902 -4.74325e-11 -1.32092e-13 7.79236e-14 -10.2786 0.731801 -0.0259123 -4.74201e-11 -1.32788e-13 6.67917e-14 -2.22167 -0.733487 0.20892 -2.03217e-16 0.0 -3.88251e-19 0.172483 -2.48159 -0.0258979 -0.00786829 -1.05712 -0.0680594 -0.522575 3.5384 0.132404 2.03217e-16 0.0 3.88251e-19 -0.87573 -4.26243 0.0710539 0.00283152 2.16853 0.0189613 0.527599 2.09368 -0.10328
-88.8758 82.6026 -172.352 0.5489 21.8112 7.6696 -2.11502 2.81734 0.272976 1.19357 -1.16379 0.0522017 -0.700814 0.314112 0.321999 0.42376 -1.07242 0.847198 -0.0 0.0 0.0 -0.0 0.0 0.0 -1.8989e-14 1.39318e-13 -1.46395e-13 22.4017 4.47299 1.35198 -4.13267 -1.85938 6.47645 -0.000121103 0.193339 0.0271705 6.41622e-10 1.82907e-11 -9.42957e-10 1.107e-09 3.30525e-11 -1.63129e-09 6.41632e-10 1.82911e-11 -9.42964e-10 7.73091 5.47488 0.417314 6.41623e-10 1.82887e-11 -9.42955e-10 2.90554 0.965183 0.102902 6.41634e-10 1.82889e-11 -9.42954e-10 10.2786 0.731801 0.0259123 6.41621e-10 1.8288e-11 -9.42945e-10 2.22167 -0.733487 -0.20892 -1.89913e-14 1.3931e-13 -1.4665e-13 -24.9487 1.76172 1.39384 5.54565 -2.85544 -8.26642 -0.00425858 1.4492 -0.203437 9.10818e-10 1.60005e-09 4.74087e-10 1.5774e-09 2.76889e-09 8.13791e-10 9.10811e-10 1.60005e-09 4.741e-10 -7.73091 5.47488 -0.417314 9.10818e-10 1.60005e-09 4.74093e-10 -2.90554 0.965183 -0.102902 9.10809e-10 1.60005e-09 4.74092e-10 -10.2786 0.731801 -0.0259123 9.1082e-10 1.60005e-09 4.74081e-10 -2.22167 -0.733487 0.20892 -2.03217e-16 0.0 -3.88251e-19 -1.34061 -8.72697 -1.43138 0.0236462 13.5493 0.145669 -0.586482 -3.36267 -0.454144 2.03217e-16 0.0 3.88251e-19 -2.82722 -6.81607 -0.567235 -0.0262008 10.8306 -0.144867 0.746922 -5.84502 1.27966
-88.3314 82.2284 -171.989 1.476 21.5315 8.2608 -3.86055 5.78247 0.589867 2.58943 -2.39255 0.135548 -1.44898 0.653719 0.658443 0.896263 -2.20297 1.7363 -0.0 0.0 0.0 -0.0 0.0 0.0 -3.50014e-14 2.99968e-13 -3.20124e-13 45.8565 9.16366 2.81529 -8.01771 -3.72394 13.3004 -0.000589063 0.433627 0.0609397 1.4667e-09 1.41992e-11 -2.04985e-09 2.53084e-09 2.75128e-11 -3.54621e-09 1.46671e-09 1.4197e-11 -2.04986e-09 7.73091 5.47488 0.417314 1.4667e-09 1.41943e-11 -2.04985e-09 2.90554 0.965183 0.102902 1.46671e-09 1.41945e-11 -2.04985e-09 10.2786 0.731801 0.0259123 1.46669e-09 1.41941e-11 -2.04985e-09 2.22167 -0.733487 -0.20892 -3.5119e-14 2.99952e-13 -3.20332e-13 -51.4169 3.57132 2.8909 10.5126 -5.66796 -17.0571 0.00246229 2.98896 -0.42003 2.05737e-09 3.52242e-09 1.01667e-09 3.56272e-09 6.09563e-09 1.74486e-09 2.05737e-09 3.52242e-09 1.01668e-09 -7.73091 5.47488 -0.417314 2.05737e-09 3.52242e-09 1.01668e-09 -2.90554 0.965183 -0.102902 2.05736e-09 3.52242e-09 1.01668e-09 -10.2786 0.731801 -0.0259123 2.05737e-09 3.52242e-09 1.01667e-09 -2.22167 -0.733487 0.20892 -2.03217e-16 0.0 -3.88251e-19 -3.23089 -15.1697 -2.95452 -0.0733283 28.7872 0.412548 -0.821092 -10.8056 -1.12152 2.03217e-16 0.0 3.88251e-19 -4.91481 -9.55361 -1.25115 0.000828744 20.0207 -0.332422 1.40624 -14.2122 2.81329
-87.7764 81.9538 -171.578 2.359 21.2689 8.8448 -5.50526 8.45535 0.853619 3.84483 -3.48505 0.201136 -2.11303 0.942218 0.966112 1.36652 -3.21446 2.54516 -0.0 0.0 0.0 -0.0 0.0 0.0 -4.72235e-14 4.17979e-13 -4.39483e-13 66.5573 13.3886 4.15674 -11.1593 -5.29365 19.5056 -0.000913441 0.580018 0.0815153 2.01969e-09 5.51658e-11 -2.82902e-09 3.48476e-09 9.96664e-11 -4.8941e-09 2.0197e-09 5.51613e-11 -2.82903e-09 7.73091 5.47488 0.417314 2.01969e-09 5.51585e-11 -2.82902e-09 2.90554 0.965183 0.102902 2.0197e-09 5.51586e-11 -2.82902e-09 10.2786 0.731801 0.0259123 2.01968e-09 5.51588e-11 -2.82901e-09 2.22167 -0.733487 -0.20892 -4.74348e-14 4.17954e-13 -4.39652e-13 -75.1038 5.27263 4.19735 14.2316 -7.85453 -25.0189 0.018173 4.34737 -0.611876 2.8273e-09 4.80041e-09 1.42212e-09 4.896e-09 8.30713e-09 2.44109e-09 2.8273e-09 4.80042e-09 1.42213e-09 -7.73091 5.47488 -0.417314 2.8273e-09 4.80041e-09 1.42212e-09 -2.90554 0.965183 -0.102902 2.82729e-09 4.80041e-09 1.42212e-09 -10.2786 0.731801 -0.0259123 2.8273e-09 4.80041e-09 1.42211e-09 -2.22167 -0.733487 0.20892 -2.03217e-16 0.0 -3.88251e-19 -5.34388 -21.1662 -4.49659 -0.332181 42.7597 0.764017 -1.15239 -17.158 -1.70007 2.03217e-16 0.0 3.88251e-19 -6.90433 -11.9181 -1.87175 0.0813605 28.154 -0.527125 2.40445 -21.6705 4.33214
-87.2428 81.7712 -171.079 2.9886 21.0518 9.3141 -6.83233 10.3986 0.975986 4.74176 -4.23691 0.221942 -2.55914 1.10306 1.20172 1.76561 -3.93088 3.15009 -0.0 0.0 0.0 -0.0 0.0 0.0 -4.99699e-14 4.29388e-13 -4.22914e-13 80.8332 16.4784 5.09975 -13.2699 -6.38011 24.0964 -0.000296492 0.491668 0.0691011 1.89247e-09 2.08778e-10 -2.78885e-09 3.26387e-09 3.66053e-10 -4.82439e-09 1.89248e-09 2.08772e-10 -2.78887e-09 7.73091 5.47488 0.417314 1.89247e-09 2.08769e-10 -2.78886e-09 2.90554 0.965183 0.102902 1.89248e-09 2.08769e-10 -2.78886e-09 10.2786 0.731801 0.0259123 1.89246e-09 2.0877e-10 -2.78885e-09 2.22167 -0.733487 -0.20892 -5.02207e-14 4.2936e-13 -4.23063e-13 -91.6605 6.7152 5.01376 16.4843 -9.14505 -30.7017 0.0339582 5.25263 -0.740305 2.65568e-09 4.46745e-09 1.48471e-09 4.59917e-09 7.73054e-09 2.55022e-09 2.65568e-09 4.46746e-09 1.48472e-09 -7.73091 5.47488 -0.417314 2.65568e-09 4.46745e-09 1.48471e-09 -2.90554 0.965183 -0.102902 2.65567e-09 4.46745e-09 1.48471e-09 -10.2786 0.731801 -0.0259123 2.65568e-09 4.46745e-09 1.4847e-09 -2.22167 -0.733487 0.20892 -2.03217e-16 0.0 -3.88251e-19 -7.39475 -26.0864 -5.89774 -0.728728 53.5707 1.19382 -1.35947 -20.7934 -1.96116 2.03217e-16 0.0 3.88251e-19 -8.52007 -13.3549 -2.30905 0.172643 33.646 -0.688457 3.37177 -26.9063 5.53496
-86.7047 81.5706 -170.528 3.4706 20.8631 9.7013 -7.68541 11.3422 0.898357 5.12002 -4.50669 0.179249 -2.69635 1.08339 1.33624 2.02528 -4.23256 3.46649 -0.0 0.0 0.0 -0.0 0.0 0.0 -3.4536e-14 2.53164e-13 -1.71095e-13 86.3236 18.0362 5.44185 -14.3026 -6.97871 26.4219 0.000935585 0.0609125 0.00856311 5.61559e-10 5.55571e-10 -1.30116e-09 9.63937e-10 9.65647e-10 -2.25016e-09 5.61574e-10 5.55564e-10 -1.30118e-09 7.73091 5.47488 0.417314 5.61559e-10 5.55562e-10 -1.30116e-09 2.90554 0.965183 0.102902 5.61569e-10 5.55562e-10 -1.30116e-09 10.2786 0.731801 0.0259123 5.61554e-10 5.55564e-10 -1.30116e-09 2.22167 -0.733487 -0.20892 -3.47368e-14 2.53141e-13 -1.71255e-13 -98.1464 7.76334 5.10928 17.3387 -9.62636 -33.0588 0.0398746 5.51625 -0.77784 7.94036e-10 1.23996e-09 9.39164e-10 1.37638e-09 2.14424e-09 1.61802e-09 7.94036e-10 1.23997e-09 9.39175e-10 -7.73091 5.47488 -0.417314 7.94038e-10 1.23996e-09 9.39166e-10 -2.90554 0.965183 -0.102902 7.9403e-10 1.23996e-09 9.39167e-10 -10.2786 0.731801 -0.0259123 7.94038e-10 1.23996e-09 9.39156e-10 -2.22167 -0.733487 0.20892 -2.03217e-16 0.0 -3.88251e-19 -9.10324 -29.5666 -6.99627 -1.11601 60.1439 1.57871 -1.18969 -20.3333 -1.6204 2.03217e-16 0.0 3.88251e-19 -9.58135 -13.5323 -2.49061 0.20948 35.4827 -0.760449 3.85057 -29.0684 6.09361
-86.1772 81.3952 -169.88 3.7077 20.7276 9.9593 -8.1942 11.5708 0.676112 5.12834 -4.43237 0.0912001 -2.61202 0.934909 1.39855 2.17819 -4.23877 3.57609 -0.0 0.0 0.0 -0.0 0.0 0.0 -6.35029e-15 -5.52547e-14 2.4662e-13 85.5949 18.5043 5.33129 -14.6523 -7.28718 27.1158 0.00086757 -0.613763 -0.0862583 -1.61715e-09 1.03866e-09 1.20618e-09 -2.80035e-09 1.80033e-09 2.08827e-09 -1.61714e-09 1.03865e-09 1.20616e-09 7.73091 5.47488 0.417314 -1.61715e-09 1.03865e-09 1.20617e-09 2.90554 0.965183 0.102902 -1.61715e-09 1.03865e-09 1.20617e-09 10.2786 0.731801 0.0259123 -1.61716e-09 1.03866e-09 1.20618e-09 2.22167 -0.733487 -0.20892 -6.43749e-15 -5.52685e-14 2.46428e-13 -97.4089 8.53453 4.68664 17.3416 -9.66737 -33.0165 0.0368319 5.32194 -0.75025 -2.25705e-09 -4.02461e-09 -3.46629e-11 -3.90574e-09 -6.96773e-09 -4.7539e-11 -2.25705e-09 -4.02461e-09 -3.46533e-11 -7.73091 5.47488 -0.417314 -2.25705e-09 -4.02461e-09 -3.46606e-11 -2.90554 0.965183 -0.102902 -2.25706e-09 -4.02461e-09 -3.46605e-11 -10.2786 0.731801 -0.0259123 -2.25705e-09 -4.02461e-09 -3.4672e-11 -2.22167 -0.733487 0.20892 -2.03217e-16 0.0 -3.88251e-19 -10.491 -32.0241 -7.84027 -1.38444 63.6825 1.83186 -0.810499 -16.9586 -0.87387 2.03217e-16 0.0 3.88251e-19 -10.234 -12.8091 -2.4858 0.188044 34.7065 -0.755255 3.85115 -29.0483 6.11223
